<?xml version="1.0" encoding="UTF-8"?>
<svg width="20px" height="20px" viewBox="0 0 20 20" version="1.1" xmlns="http://www.w3.org/2000/svg" xmlns:xlink="http://www.w3.org/1999/xlink">
    <!-- Generator: Sketch 46.2 (44496) - http://www.bohemiancoding.com/sketch -->
    <title>Icon / 20px / Close / Black</title>
    <desc>Created with Sketch.</desc>
    <defs></defs>
    <g id="Symbols" stroke="none" stroke-width="1" fill="none" fill-rule="evenodd">
        <g id="Icon-/-20px-/-Close-/-Black">
            <g id="Close">
                <rect id="BG" x="0" y="0" width="20" height="20"></rect>
                <path d="M11.06075,9.99975 L18.78075,2.27975 C19.07375,1.98675 19.07375,1.51275 18.78075,1.21975 C18.48775,0.92675 18.01275,0.92675 17.71975,1.21975 L9.99975,8.93875 L2.28075,1.21975 C1.98775,0.92675 1.51275,0.92675 1.21975,1.21975 C0.92675,1.51275 0.92675,1.98675 1.21975,2.27975 L8.93975,9.99975 L1.21975,17.71975 C0.92675,18.01275 0.92675,18.48675 1.21975,18.77975 C1.36675,18.92675 1.55775,18.99975 1.74975,18.99975 C1.94275,18.99975 2.13375,18.92675 2.28075,18.77975 L9.99975,11.06075 L17.71975,18.77975 C17.86675,18.92675 18.05775,18.99975 18.24975,18.99975 C18.44275,18.99975 18.63375,18.92675 18.78075,18.77975 C19.07375,18.48675 19.07375,18.01275 18.78075,17.71975 L11.06075,9.99975 Z" id="Cross" fill="#87878a"></path>
            </g>
        </g>
    </g>
</svg>